<?xml version="1.0" encoding="utf-8"?>
<!-- Generator: Adobe Illustrator 23.0.1, SVG Export Plug-In . SVG Version: 6.00 Build 0)  -->
<svg version="1.1" xmlns="http://www.w3.org/2000/svg" xmlns:xlink="http://www.w3.org/1999/xlink" x="0px" y="0px"
	 viewBox="0 0 1280 500" style="enable-background:new 0 0 1280 500;" xml:space="preserve">
<style type="text/css">
	.st0{fill:url(#SVGID_1_);}
	.st1{fill:#009DAC;}
	.st2{fill:#A14D93;}
	.st3{fill:#F6C33B;}
	.st4{fill:#EA802D;}
	.st5{fill:#EB6176;}
	.st6{fill:none;stroke:#009DAC;stroke-width:8;stroke-linecap:round;stroke-linejoin:round;stroke-miterlimit:10;}
	.st7{fill:#DE3E62;}
	.st8{fill:#FFFFFF;}
	.st9{fill:#F6C33B;stroke:#F7C33B;stroke-miterlimit:10;}
</style>
<g id="Calque_2">
	<linearGradient id="SVGID_1_" gradientUnits="userSpaceOnUse" x1="640" y1="500" x2="640" y2="0">
		<stop  offset="0" style="stop-color:#FFFFFF"/>
		<stop  offset="0.5112" style="stop-color:#00A99D"/>
		<stop  offset="1" style="stop-color:#1B1464"/>
	</linearGradient>
	<rect class="st0" width="1280" height="500"/>
</g>
<g id="Calque_1">
	<circle class="st1" cx="482.1" cy="201.7" r="24.8"/>
	<polygon class="st2" points="506.8,154.1 480.7,190.1 533.3,190.3 	"/>
	<polygon class="st2" points="998.7,171.7 967.3,140.3 958.8,192.2 	"/>
	<g>
		<rect x="526.9" y="411.7" class="st1" width="4.1" height="4.1"/>
		<rect x="533.9" y="411.7" class="st1" width="4.1" height="4.1"/>
		<rect x="540.8" y="411.7" class="st1" width="4.1" height="4.1"/>
		<rect x="547.8" y="411.7" class="st1" width="4.1" height="4.1"/>
		<rect x="526.9" y="420.4" class="st1" width="4.1" height="4.1"/>
		<rect x="533.9" y="420.4" class="st1" width="4.1" height="4.1"/>
		<rect x="540.8" y="420.4" class="st1" width="4.1" height="4.1"/>
		<rect x="547.8" y="420.4" class="st1" width="4.1" height="4.1"/>
		<rect x="526.9" y="429.1" class="st1" width="4.1" height="4.1"/>
		<rect x="533.9" y="429.1" class="st1" width="4.1" height="4.1"/>
		<rect x="540.8" y="429.1" class="st1" width="4.1" height="4.1"/>
		<rect x="547.8" y="429.1" class="st1" width="4.1" height="4.1"/>
		<rect x="526.9" y="437.9" class="st1" width="4.1" height="4.1"/>
		<rect x="533.9" y="437.9" class="st1" width="4.1" height="4.1"/>
		<rect x="540.8" y="437.9" class="st1" width="4.1" height="4.1"/>
		<rect x="547.8" y="437.9" class="st1" width="4.1" height="4.1"/>
	</g>
	<g>
		<rect x="1097.5" y="368" class="st1" width="10" height="10"/>
		<rect x="1114.5" y="368" class="st1" width="10" height="10"/>
		<rect x="1131.6" y="368" class="st1" width="10" height="10"/>
		<rect x="1148.7" y="368" class="st1" width="10" height="10"/>
		<rect x="1097.5" y="389.3" class="st1" width="10" height="10"/>
		<rect x="1114.5" y="389.3" class="st1" width="10" height="10"/>
		<rect x="1131.6" y="389.3" class="st1" width="10" height="10"/>
		<rect x="1148.7" y="389.3" class="st1" width="10" height="10"/>
		<rect x="1097.5" y="410.6" class="st1" width="10" height="10"/>
		<rect x="1114.5" y="410.6" class="st1" width="10" height="10"/>
		<rect x="1131.6" y="410.6" class="st1" width="10" height="10"/>
		<rect x="1148.7" y="410.6" class="st1" width="10" height="10"/>
		<rect x="1097.5" y="432" class="st1" width="10" height="10"/>
		<rect x="1114.5" y="432" class="st1" width="10" height="10"/>
		<rect x="1131.6" y="432" class="st1" width="10" height="10"/>
		<rect x="1148.7" y="432" class="st1" width="10" height="10"/>
	</g>
	<circle class="st3" cx="690.2" cy="368.3" r="57"/>
	<circle class="st3" cx="160.6" cy="213.3" r="57"/>
	<circle class="st3" cx="411.9" cy="171.2" r="9.3"/>
	<circle class="st1" cx="730" cy="25.7" r="7.7"/>
	
		<rect x="664.8" y="108.5" transform="matrix(0.7071 0.7071 -0.7071 0.7071 308.2052 -451.3773)" class="st4" width="68.3" height="75.6"/>
	
		<rect x="491.8" y="128.1" transform="matrix(0.7071 -0.7071 0.7071 0.7071 -1.0785 516.9411)" class="st5" width="263.4" height="263.4"/>
	<g>
		<line class="st6" x1="839.3" y1="126.9" x2="730.7" y2="235.5"/>
		<line class="st6" x1="820.7" y1="167.8" x2="712.1" y2="276.4"/>
	</g>
	<g>
		<line class="st6" x1="542.7" y1="244.4" x2="434.1" y2="353"/>
		<line class="st6" x1="524.1" y1="285.3" x2="415.5" y2="393.9"/>
	</g>
	
		<rect x="486.7" y="103.3" transform="matrix(0.7071 0.7071 -0.7071 0.7071 226.3047 -318.3502)" class="st7" width="21.4" height="21.4"/>
	<path class="st8" d="M546.6,213.8v7.7h-24.4v18.2h24.4v7.7h-24.4v18.2h24.4v7.8h-32.1v-59.6H546.6z"/>
	<path class="st8" d="M581.6,254.4h-7v19.1h-7.7v-59.6h16.9c4.8,0.6,8.8,2.6,12.1,5.9c4,4,5.9,8.7,5.9,14.3c0,5.6-2,10.4-5.9,14.4
		c-2.7,2.7-4.8,4.3-6.3,4.6l13.2,20.4h-9.4L581.6,254.4z M574.5,221.6v25h7c3.4,0,6.4-1.2,8.8-3.7c2.4-2.4,3.7-5.4,3.7-8.9
		c0-3.5-1.2-6.4-3.7-8.8c-2.4-2.4-5.4-3.7-8.8-3.7H574.5z"/>
	<path class="st8" d="M635.2,254.4h-7v19.1h-7.7v-59.6h16.9c4.8,0.6,8.8,2.6,12.1,5.9c4,4,5.9,8.7,5.9,14.3c0,5.6-2,10.4-5.9,14.4
		c-2.7,2.7-4.8,4.3-6.3,4.6l13.2,20.4h-9.4L635.2,254.4z M628.2,221.6v25h7c3.4,0,6.4-1.2,8.8-3.7c2.4-2.4,3.7-5.4,3.7-8.9
		c0-3.5-1.2-6.4-3.7-8.8c-2.4-2.4-5.4-3.7-8.8-3.7H628.2z"/>
	<path class="st8" d="M725.3,222c6,6,8.9,13.2,8.9,21.6c0,8.4-3,15.6-8.9,21.6s-13.2,8.9-21.6,8.9s-15.6-3-21.6-8.9
		s-8.9-13.2-8.9-21.6c0-8.4,3-15.6,8.9-21.6s13.2-8.9,21.6-8.9S719.3,216,725.3,222z M703.7,220.8c-6.3,0-11.6,2.2-16.1,6.7
		c-4.4,4.4-6.7,9.8-6.7,16.1c0,6.3,2.2,11.7,6.7,16.1s9.8,6.7,16.1,6.7c6.3,0,11.6-2.2,16.1-6.7c4.4-4.4,6.7-9.8,6.7-16.1
		c0-6.3-2.2-11.6-6.7-16.1C715.3,223,710,220.8,703.7,220.8z"/>
	<g>
		<path class="st9" d="M537,268.7l-9.4,9.6c-5,4.7-8.7,7-11,7c-1,0-1.7-0.3-2.3-0.9c-0.6-0.6-0.9-1.4-0.9-2.3c0-2.7,2-6.3,5.9-10.7
			c2.6-2.9,6.2-6.4,10.9-10.3c3.9-3.3,5.9-5.1,5.9-5.2c0-0.2-0.1-0.3-0.4-0.3c-1.2,0-3.9,1.4-8.2,4.1c-4.3,2.8-6.5,4.6-6.5,5.4
			c0,0.2,0.1,0.3,0.3,0.3c0.3,0,0.8-0.2,1.7-0.7l1.7-0.9c0.3,0,0.4,0.1,0.4,0.4c0,0.3-0.7,0.9-2.2,1.5c-1.5,0.7-2.5,1-3,1
			c-0.9,0-1.4-0.5-1.4-1.4c0-0.8,1.1-2.2,3.4-4.1c1.8-1.6,4.2-3.1,7.1-4.6c3.3-1.7,5.9-2.6,7.8-2.6c0.8,0,1.2,0.3,1.2,1
			c0,1-1.3,2.7-3.8,5c-13,12-19.5,19.7-19.5,22.9c0,0.8,0.4,1.3,1.1,1.3c2.1,0,6.9-3.5,14.5-10.5c4.3-4,8.9-8.4,13.6-13.4
			c0.5-0.6,1.3-1.4,2.5-2.5c0.4-0.3,0.6-0.4,0.8-0.4c0.2,0,0.5,0.1,0.7,0.4s0.4,0.5,0.4,0.7c0,0.3-1.3,2-4,5
			c-3.3,3.8-5.8,6.8-7.4,9.1c-2.7,3.8-4,6.8-4,9.1c0,1.5,0.6,2.2,1.9,2.2c1.1,0,2.6-0.7,4.3-2c1.7-1.3,4.3-3.8,8-7.7
			c3.7-3.8,6.9-7.6,9.6-11.6s4.2-6.3,4.2-7c0-0.3-0.1-0.4-0.4-0.4c-0.7,0-2.4,1.1-5,3.4l-4.1,3.5c-0.1-0.1-0.2-0.2-0.2-0.3
			c0-0.9,1.4-2.5,4.1-4.7c2.8-2.2,4.7-3.3,6-3.3c0.9,0,1.4,0.5,1.4,1.5c0,1.8-1.8,5.1-5.5,10c-2.6,3.5-5.2,6.7-7.7,9.3
			c-3.1,3.3-5.8,5.9-8.1,7.7c-2.4,1.8-4.5,2.8-6.5,2.8c-2.4,0-3.6-1.4-3.6-4.3c0-1.9,0.6-4.1,1.8-6.4
			C534,273.1,535.2,271.2,537,268.7z"/>
		<path class="st9" d="M555.9,278.6l-4.6,3.5c-2.4,1.6-4.1,2.5-5.3,2.5c-0.2,0-0.3-0.1-0.3-0.3c0-0.3,0.1-0.5,0.4-0.5
			c0.9-0.2,1.7-0.4,2.3-0.8c1.1-0.6,2.9-1.9,5.5-3.9l5.9-4.8c1.1-1,1.8-1.5,2.1-1.5c0.4,0,0.8,0.2,1.2,0.6c0.9-0.7,1.6-1,2.3-1
			c1,0,1.5,0.5,1.5,1.6c0,1.6-1.3,3.8-3.9,6.6c-2.6,2.8-4.8,4.2-6.4,4.2c-1.5,0-2.3-0.8-2.3-2.4
			C554.5,281.7,554.9,280.4,555.9,278.6z M561.3,275.9c-3,2.7-4.6,4.8-4.6,6.5c0,0.7,0.3,1.1,1,1.1c1.1,0,2.9-1.4,5.2-4.1
			c-1.3-0.3-1.9-1.1-1.9-2.4C561.1,276.7,561.2,276.3,561.3,275.9z M563.5,278.7c0.6-0.5,1.1-1.2,1.7-2.1c0.6-1,0.9-1.9,0.9-2.5
			c0-0.6-0.2-0.9-0.7-0.9c-0.7,0-1.5,0.5-2.2,1.4c-0.7,0.9-1.1,1.8-1.1,2.5C562,278,562.5,278.5,563.5,278.7z"/>
		<path class="st9" d="M574.8,274.7c-0.1-0.5-0.1-0.8-0.1-0.9c0-0.4,0.5-1,1.4-1.9c1-0.9,1.6-1.3,2-1.3c0.3,0,0.5,0.2,0.5,0.5
			c0,0.3-0.2,0.7-0.6,1.3c1.7,0,2.5,0.7,2.5,2c0,1.1-1.1,2.7-3.3,5.1c-2.2,2.3-3.3,3.6-3.3,3.9c0,0.3,0.1,0.4,0.4,0.4l0.7,0
			c0.2,0,0.3,0.1,0.3,0.4c0,0.3-0.4,0.5-1.3,0.5c-1.1,0-1.7-0.5-1.7-1.5c0-1,0.5-2.2,1.6-3.6c0.7-0.9,1.7-2,3.1-3.4
			c1.1-1.1,1.6-1.7,1.6-1.8c0-0.2-0.1-0.3-0.4-0.3c-0.2,0-0.6,0.1-1.3,0.3c-0.6,0.2-1,0.3-1.1,0.4c-6.9,6.6-11.6,9.9-14,9.9
			c-0.2,0-0.3-0.1-0.3-0.3c0-0.3,0.2-0.4,0.6-0.5c0.5-0.1,1.1-0.3,1.9-0.7c1.2-0.5,3-1.8,5.4-3.8C571.9,277.5,573.6,276,574.8,274.7
			z"/>
		<path class="st9" d="M587.2,277.4l-5.5,4.2c-3,2-5.2,3.1-6.6,3.1c-0.2,0-0.3-0.1-0.3-0.3c0-0.3,0.3-0.5,0.8-0.5
			c0.6-0.1,1.3-0.4,2.2-0.8c1-0.5,2.7-1.7,5-3.4c1.7-1.3,3.6-2.6,5.5-4.2c2.2-3.3,5.3-6.9,9.2-10.8c4.3-4.3,7.2-6.5,8.7-6.5
			c0.7,0,1,0.4,1,1.1c0,1.9-2.2,4.9-6.6,9c-2.8,2.6-5.8,5.1-9.1,7.5c-0.8,0.6-1.7,1.8-2.8,3.6c-1.2,1.9-1.8,3.2-1.8,4
			c0,0.4,0.4,0.6,1.2,0.6c0.2,0,0.3,0.1,0.3,0.3c0,0.3-0.4,0.4-1.2,0.4c-1.2,0-1.8-0.6-1.8-1.9C585.5,281.6,586,279.8,587.2,277.4z
			 M606.1,258.8c-0.6,0-2.9,2.3-6.9,6.8c-3.8,4.4-6.3,7.3-7.3,9c9.7-7.9,14.6-13.1,14.6-15.4C606.5,258.9,606.3,258.8,606.1,258.8z"
			/>
		<path class="st9" d="M597.2,279.3l-4.2,3.2c-2.1,1.4-3.7,2.1-4.9,2.1c-0.2,0-0.3-0.1-0.3-0.3c0-0.3,0.1-0.5,0.4-0.5
			c1.1-0.3,2.2-0.7,3.1-1.3c1.4-0.8,3.4-2.4,6-4.6c2.6-2.2,4.5-3.8,5.9-4.6c1-0.6,1.9-0.9,2.7-0.9c1.3,0,2,0.6,2.1,1.7
			c2.2-2.8,4.8-5.8,7.6-9c4.4-4.9,7-7.4,7.8-7.4c0.5,0,0.7,0.3,0.7,0.8c0,0.4-0.6,1.3-1.8,2.6c-2.2,2.3-5.6,6.1-10.1,11.4
			c-5.5,6.4-8.2,10-8.2,10.9c0,0.3,0.2,0.5,0.7,0.5c0.5,0,0.7,0.1,0.7,0.4c0,0.3-0.4,0.5-1.1,0.5c-1.2,0-1.8-0.5-1.8-1.5
			c0-0.8,0.5-2,1.5-3.6c-2.9,3.1-5,4.7-6.3,4.7c-1.1,0-1.7-0.6-1.7-1.8C596.2,281.8,596.5,280.7,597.2,279.3z M598.6,283.2
			c0.9,0,2.5-1.3,5.1-3.8c2.5-2.5,3.8-4.2,3.8-5.1c0-0.4-0.2-0.6-0.6-0.6c-1,0-2.7,1.2-5.1,3.7c-2.4,2.5-3.6,4.3-3.6,5.4
			C598.1,283,598.3,283.2,598.6,283.2z"/>
		<path class="st9" d="M651.8,272.8c0,1.6-1.2,3.5-3.5,5.6c-2.5,2.3-5.4,4-8.9,5.3c-3.3,1.2-6.7,1.8-10.2,1.8
			c-4.7,0-7.1-1.4-7.1-4.3c0-1.7,1.3-3.2,4-4.6c2.3-1.2,4.4-1.9,6.3-1.9c0.6,0,0.9,0.2,0.9,0.6c0,0.3-0.3,0.4-0.9,0.5
			c-1.8,0.3-3.6,0.8-5.3,1.6c-2.4,1-3.6,2.2-3.6,3.5c0,1.6,1.8,2.4,5.5,2.4c3,0,6.2-0.6,9.6-1.8c3.5-1.2,6.4-2.8,8.6-4.7
			c2.2-1.8,3.3-3.2,3.3-4.2c0-0.9-1.5-1.5-4.4-1.9c-4.9-0.6-7.6-0.9-8.2-1.1c-2.9-0.7-4.4-2-4.4-3.8c0-2.3,1.7-4.5,5.2-6.6
			c2.8-1.7,6.4-3.2,10.8-4.3c3.8-1,6.9-1.5,9.2-1.5c2.9,0,4.4,0.9,4.4,2.7c0,1.6-1.4,3.4-4.1,5.5c-2.6,2-4.8,3.1-6.5,3.1
			c-1.3,0-2-0.5-2-1.4c0-0.8,0.8-1.7,2.3-2.7c1.5-1,2.6-1.5,3.4-1.5c0.3,0,0.4,0.1,0.4,0.3l-2.3,1.3c-1.5,0.8-2.3,1.4-2.4,1.8
			c0.1,0.1,0.2,0.2,0.4,0.2c1.1,0,2.8-0.7,5.3-2.1c2.6-1.5,3.9-2.8,3.9-3.8c0-0.9-1-1.3-3.1-1.3c-2.4,0-5.7,0.7-10.1,2.1
			c-2.9,0.9-5.5,1.9-7.7,3c-3.8,1.8-5.7,3.4-5.7,4.9c0,0.9,1.2,1.6,3.6,2.1l7.2,0.9c2.8,0.4,4.5,1,5.1,1.8
			C651.5,271,651.8,271.9,651.8,272.8z"/>
		<path class="st9" d="M655.2,278.6l-4.6,3.5c-2.4,1.6-4.1,2.5-5.3,2.5c-0.2,0-0.3-0.1-0.3-0.3c0-0.3,0.1-0.5,0.4-0.5
			c0.9-0.2,1.7-0.4,2.3-0.8c1.1-0.6,2.9-1.9,5.5-3.9l5.9-4.8c1.1-1,1.8-1.5,2.1-1.5c0.4,0,0.8,0.2,1.2,0.6c0.9-0.7,1.6-1,2.3-1
			c1,0,1.5,0.5,1.5,1.6c0,1.6-1.3,3.8-3.9,6.6c-2.6,2.8-4.8,4.2-6.4,4.2c-1.5,0-2.3-0.8-2.3-2.4
			C653.7,281.7,654.2,280.4,655.2,278.6z M660.6,275.9c-3,2.7-4.6,4.8-4.6,6.5c0,0.7,0.3,1.1,1,1.1c1.1,0,2.9-1.4,5.2-4.1
			c-1.3-0.3-1.9-1.1-1.9-2.4C660.4,276.7,660.4,276.3,660.6,275.9z M662.8,278.7c0.6-0.5,1.1-1.2,1.7-2.1c0.6-1,0.9-1.9,0.9-2.5
			c0-0.6-0.2-0.9-0.7-0.9c-0.7,0-1.5,0.5-2.2,1.4c-0.7,0.9-1.1,1.8-1.1,2.5C661.3,278,661.8,278.5,662.8,278.7z"/>
		<path class="st9" d="M678,280.4c-2.6,2.5-4.5,3.8-5.7,3.8c-0.9,0-1.4-0.5-1.4-1.5c0-1.2,0.5-2.6,1.6-4.1l2.9-3.4l-6.4,5.3
			c-3.6,2.7-6.1,4.1-7.6,4.1c-0.2,0-0.3-0.1-0.3-0.3c0-0.3,0.2-0.4,0.6-0.5c0.6-0.1,1.2-0.3,1.9-0.7c0.9-0.4,2.7-1.7,5.5-3.9
			c1.3-1,3.2-2.6,5.7-4.7c0.4-0.4,1.1-1,2-1.8c0.4-0.2,0.7-0.4,1-0.4c0.9,0,1.3,0.3,1.3,0.8c0,0.6-1,2-3.1,4.3
			c-2.1,2.3-3.1,4-3.1,4.9c0,0.3,0.1,0.4,0.4,0.4c0.9,0,2.9-1.7,6-5.1c3.1-3.4,4.8-5.1,5.3-5.1c0.2,0,0.4,0.1,0.6,0.3
			c0.2,0.2,0.3,0.4,0.3,0.7c0,0.4-1.2,1.9-3.5,4.5c-2.3,2.7-3.5,4.4-3.5,5.1c0,0.3,0.3,0.5,0.8,0.5c0.5,0,0.8,0.1,0.8,0.4
			c0,0.3-0.4,0.4-1.1,0.4c-1.3,0-1.9-0.5-1.9-1.4C677.1,282.5,677.4,281.6,678,280.4z"/>
		<path class="st9" d="M694.6,277.8c4.1-3.5,7-5.2,8.6-5.2c1.1,0,1.6,0.5,1.6,1.5c0,0.9-1.2,2.5-3.6,4.8c-2.4,2.3-3.6,3.7-3.6,4.2
			c0,0.5,0.3,0.7,0.8,0.8c0.5,0,0.8,0.2,0.8,0.4c0,0.3-0.5,0.4-1.6,0.4c-1.2,0-1.9-0.6-1.9-1.7c0-0.9,0.6-2.1,1.8-3.5
			c0.6-0.7,1.7-1.9,3.3-3.4c1.2-1.1,1.8-1.8,1.8-2.1c0-0.2-0.1-0.3-0.4-0.3c-0.9,0-2.7,1.1-5.5,3.4c-2.4,1.9-4.1,3.4-5.3,4.6
			c-1.5,1.5-2.3,2.3-2.7,2.3c-0.2,0-0.5-0.1-0.6-0.3c-0.2-0.2-0.3-0.5-0.3-0.7c0-0.3,1-1.7,3.1-4.2l3.7-4.4l-5.7,4.6l-4.2,3.2
			c-2.1,1.5-3.8,2.2-4.9,2.2c-0.2,0-0.3-0.1-0.3-0.3c0-0.3,0.2-0.4,0.6-0.5c0.6-0.1,1.2-0.3,2-0.7c1.1-0.5,3.3-2.1,6.7-4.8
			c3-2.4,5.2-4.3,6.5-5.6c0.2-0.2,0.6-0.5,1.1-0.8c0.2-0.1,0.5-0.1,0.8-0.1c0.3,0,0.5,0.1,0.8,0.3c0.3,0.2,0.4,0.4,0.4,0.6
			C698.2,272.9,697,274.7,694.6,277.8z"/>
		<path class="st9" d="M708,279.3l-4.2,3.2c-2.1,1.4-3.7,2.1-4.9,2.1c-0.2,0-0.3-0.1-0.3-0.3c0-0.3,0.1-0.5,0.4-0.5
			c1.1-0.3,2.2-0.7,3.1-1.3c1.4-0.8,3.4-2.4,6-4.6c2.6-2.2,4.5-3.8,5.9-4.6c1-0.6,1.9-0.9,2.7-0.9c1.3,0,2,0.6,2.1,1.7
			c2.2-2.8,4.8-5.8,7.6-9c4.4-4.9,7-7.4,7.8-7.4c0.5,0,0.7,0.3,0.7,0.8c0,0.4-0.6,1.3-1.8,2.6c-2.2,2.3-5.6,6.1-10.1,11.4
			c-5.5,6.4-8.2,10-8.2,10.9c0,0.3,0.2,0.5,0.7,0.5c0.5,0,0.7,0.1,0.7,0.4c0,0.3-0.4,0.5-1.1,0.5c-1.2,0-1.8-0.5-1.8-1.5
			c0-0.8,0.5-2,1.5-3.6c-2.9,3.1-5,4.7-6.3,4.7c-1.1,0-1.7-0.6-1.7-1.8C707,281.8,707.3,280.7,708,279.3z M709.4,283.2
			c0.9,0,2.5-1.3,5.1-3.8c2.5-2.5,3.8-4.2,3.8-5.1c0-0.4-0.2-0.6-0.6-0.6c-1,0-2.7,1.2-5.1,3.7c-2.4,2.5-3.6,4.3-3.6,5.4
			C708.9,283,709.1,283.2,709.4,283.2z"/>
	</g>
</g>
</svg>
