<?xml version="1.0" encoding="utf-8"?>
<!-- Generator: Adobe Illustrator 23.0.1, SVG Export Plug-In . SVG Version: 6.00 Build 0)  -->
<svg version="1.1" id="Calque_1" xmlns="http://www.w3.org/2000/svg" xmlns:xlink="http://www.w3.org/1999/xlink" x="0px" y="0px"
	 viewBox="0 0 200 200" style="enable-background:new 0 0 200 200;" xml:space="preserve">
<style type="text/css">
	.st0{fill:#009DAC;}
	.st1{fill:#A14D93;}
	.st2{fill:#F6C33B;}
	.st3{fill:#EA802D;}
	.st4{fill:#EB6176;}
	.st5{fill:none;stroke:#009DAC;stroke-width:8;stroke-linecap:round;stroke-linejoin:round;stroke-miterlimit:10;}
	.st6{fill:#DE3E62;}
	.st7{fill:#FFFFFF;}
	.st8{fill:#F6C33B;stroke:#F7C33B;stroke-width:0.5;stroke-miterlimit:10;}
</style>
<circle class="st0" cx="44.3" cy="82.2" r="10.4"/>
<polygon class="st1" points="54.6,62.3 43.7,77.3 65.8,77.4 "/>
<g>
	<rect x="63.1" y="170.2" class="st0" width="1.7" height="1.7"/>
	<rect x="66" y="170.2" class="st0" width="1.7" height="1.7"/>
	<rect x="68.9" y="170.2" class="st0" width="1.7" height="1.7"/>
	<rect x="71.8" y="170.2" class="st0" width="1.7" height="1.7"/>
	<rect x="63.1" y="173.9" class="st0" width="1.7" height="1.7"/>
	<rect x="66" y="173.9" class="st0" width="1.7" height="1.7"/>
	<rect x="68.9" y="173.9" class="st0" width="1.7" height="1.7"/>
	<rect x="71.8" y="173.9" class="st0" width="1.7" height="1.7"/>
	<rect x="63.1" y="177.5" class="st0" width="1.7" height="1.7"/>
	<rect x="66" y="177.5" class="st0" width="1.7" height="1.7"/>
	<rect x="68.9" y="177.5" class="st0" width="1.7" height="1.7"/>
	<rect x="71.8" y="177.5" class="st0" width="1.7" height="1.7"/>
	<rect x="63.1" y="181.2" class="st0" width="1.7" height="1.7"/>
	<rect x="66" y="181.2" class="st0" width="1.7" height="1.7"/>
	<rect x="68.9" y="181.2" class="st0" width="1.7" height="1.7"/>
	<rect x="71.8" y="181.2" class="st0" width="1.7" height="1.7"/>
</g>
<circle class="st2" cx="131.5" cy="152" r="23.9"/>
<circle class="st2" cx="14.9" cy="69.5" r="3.9"/>
<circle class="st0" cx="148.2" cy="8.4" r="3.2"/>
<rect x="120.9" y="43.2" transform="matrix(0.7071 0.7071 -0.7071 0.7071 81.3276 -78.3012)" class="st3" width="28.6" height="31.7"/>
<rect x="48.4" y="51.4" transform="matrix(0.7071 -0.7071 0.7071 0.7071 -45.0166 104.4244)" class="st4" width="110.4" height="110.4"/>
<line class="st5" x1="194" y1="50.9" x2="148.5" y2="96.4"/>
<line class="st5" x1="187.2" y1="69" x2="141.7" y2="114.5"/>
<line class="st5" x1="69.7" y1="98.1" x2="24.2" y2="143.6"/>
<line class="st5" x1="61.9" y1="117.2" x2="16.4" y2="162.7"/>
<rect x="46.2" y="41" transform="matrix(0.7071 0.7071 -0.7071 0.7071 47.0065 -22.555)" class="st6" width="9" height="9"/>
<path class="st7" d="M71.3,87.3v3.2H61.1v7.6h10.2v3.2H61.1v7.6h10.2v3.2H57.9v-25H71.3z"/>
<path class="st7" d="M86,104.3h-3v8h-3.2v-25h7.1c2,0.3,3.7,1.1,5.1,2.5c1.7,1.7,2.5,3.7,2.5,6c0,2.4-0.8,4.4-2.5,6
	c-1.1,1.1-2,1.8-2.6,1.9l5.5,8.5H91L86,104.3z M83,90.5V101h3c1.4,0,2.7-0.5,3.7-1.5c1-1,1.5-2.3,1.5-3.7c0-1.4-0.5-2.7-1.5-3.7
	c-1-1-2.3-1.5-3.7-1.5H83z"/>
<path class="st7" d="M108.5,104.3h-3v8h-3.2v-25h7.1c2,0.3,3.7,1.1,5.1,2.5c1.7,1.7,2.5,3.7,2.5,6c0,2.4-0.8,4.4-2.5,6
	c-1.1,1.1-2,1.8-2.6,1.9l5.5,8.5h-3.9L108.5,104.3z M105.5,90.5V101h3c1.4,0,2.7-0.5,3.7-1.5c1-1,1.5-2.3,1.5-3.7
	c0-1.4-0.5-2.7-1.5-3.7c-1-1-2.3-1.5-3.7-1.5H105.5z"/>
<path class="st7" d="M146.2,90.7c2.5,2.5,3.7,5.5,3.7,9s-1.2,6.5-3.7,9s-5.5,3.7-9,3.7s-6.5-1.2-9-3.7s-3.7-5.5-3.7-9s1.2-6.5,3.7-9
	s5.5-3.7,9-3.7S143.7,88.2,146.2,90.7z M137.2,90.2c-2.6,0-4.9,0.9-6.7,2.8c-1.9,1.9-2.8,4.1-2.8,6.7s0.9,4.9,2.8,6.7
	c1.9,1.9,4.1,2.8,6.7,2.8c2.6,0,4.9-0.9,6.7-2.8c1.9-1.9,2.8-4.1,2.8-6.7s-0.9-4.9-2.8-6.7C142,91.2,139.8,90.2,137.2,90.2z"/>
<g>
	<path class="st8" d="M67.3,110.3l-3.9,4c-2.1,2-3.6,2.9-4.6,2.9c-0.4,0-0.7-0.1-1-0.4c-0.2-0.3-0.4-0.6-0.4-1
		c0-1.1,0.8-2.6,2.5-4.5c1.1-1.2,2.6-2.7,4.6-4.3c1.6-1.4,2.5-2.1,2.5-2.2c0-0.1-0.1-0.1-0.1-0.1c-0.5,0-1.6,0.6-3.4,1.7
		c-1.8,1.2-2.7,1.9-2.7,2.3c0,0.1,0,0.1,0.1,0.1c0.1,0,0.4-0.1,0.7-0.3l0.7-0.4c0.1,0,0.2,0,0.2,0.2c0,0.1-0.3,0.4-0.9,0.6
		c-0.6,0.3-1,0.4-1.2,0.4c-0.4,0-0.6-0.2-0.6-0.6c0-0.3,0.5-0.9,1.4-1.7c0.8-0.7,1.8-1.3,3-1.9c1.4-0.7,2.5-1.1,3.3-1.1
		c0.3,0,0.5,0.1,0.5,0.4c0,0.4-0.5,1.1-1.6,2.1c-5.4,5-8.2,8.2-8.2,9.6c0,0.4,0.2,0.5,0.5,0.5c0.9,0,2.9-1.5,6.1-4.4
		c1.8-1.7,3.7-3.5,5.7-5.6c0.2-0.3,0.6-0.6,1-1c0.2-0.1,0.3-0.2,0.3-0.2c0.1,0,0.2,0.1,0.3,0.2c0.1,0.1,0.1,0.2,0.1,0.3
		c0,0.1-0.6,0.8-1.7,2.1c-1.4,1.6-2.4,2.9-3.1,3.8c-1.1,1.6-1.7,2.9-1.7,3.8c0,0.6,0.3,0.9,0.8,0.9c0.5,0,1.1-0.3,1.8-0.8
		c0.7-0.5,1.8-1.6,3.4-3.2c1.5-1.6,2.9-3.2,4-4.9c1.2-1.7,1.7-2.6,1.7-2.9c0-0.1-0.1-0.2-0.2-0.2c-0.3,0-1,0.5-2.1,1.4l-1.7,1.5
		c0,0-0.1-0.1-0.1-0.1c0-0.4,0.6-1,1.7-2c1.2-0.9,2-1.4,2.5-1.4c0.4,0,0.6,0.2,0.6,0.6c0,0.7-0.8,2.1-2.3,4.2
		c-1.1,1.5-2.2,2.8-3.2,3.9c-1.3,1.4-2.4,2.5-3.4,3.2c-1,0.8-1.9,1.2-2.7,1.2c-1,0-1.5-0.6-1.5-1.8c0-0.8,0.3-1.7,0.8-2.7
		C66.1,112.1,66.6,111.3,67.3,110.3z"/>
	<path class="st8" d="M75.2,114.5l-1.9,1.5c-1,0.7-1.7,1-2.2,1c-0.1,0-0.1,0-0.1-0.1c0-0.1,0.1-0.2,0.2-0.2c0.4-0.1,0.7-0.2,1-0.3
		c0.5-0.3,1.2-0.8,2.3-1.6l2.5-2c0.5-0.4,0.8-0.6,0.9-0.6c0.2,0,0.3,0.1,0.5,0.3c0.4-0.3,0.7-0.4,1-0.4c0.4,0,0.6,0.2,0.6,0.7
		c0,0.7-0.5,1.6-1.6,2.8c-1.1,1.2-2,1.8-2.7,1.8c-0.6,0-1-0.3-1-1C74.6,115.8,74.8,115.2,75.2,114.5z M77.5,113.3
		c-1.3,1.1-1.9,2-1.9,2.7c0,0.3,0.1,0.5,0.4,0.5c0.5,0,1.2-0.6,2.2-1.7c-0.5-0.1-0.8-0.5-0.8-1C77.4,113.6,77.4,113.5,77.5,113.3z
		 M78.4,114.5c0.2-0.2,0.5-0.5,0.7-0.9c0.3-0.4,0.4-0.8,0.4-1c0-0.2-0.1-0.4-0.3-0.4c-0.3,0-0.6,0.2-0.9,0.6c-0.3,0.4-0.5,0.7-0.5,1
		C77.8,114.2,78,114.4,78.4,114.5z"/>
	<path class="st8" d="M83.1,112.8c0-0.2,0-0.3,0-0.4c0-0.2,0.2-0.4,0.6-0.8c0.4-0.4,0.7-0.5,0.8-0.5c0.1,0,0.2,0.1,0.2,0.2
		c0,0.1-0.1,0.3-0.2,0.6c0.7,0,1.1,0.3,1.1,0.8c0,0.4-0.5,1.1-1.4,2.1c-0.9,1-1.4,1.5-1.4,1.6c0,0.1,0.1,0.2,0.2,0.2l0.3,0
		c0.1,0,0.1,0.1,0.1,0.2c0,0.1-0.2,0.2-0.5,0.2c-0.5,0-0.7-0.2-0.7-0.6c0-0.4,0.2-0.9,0.7-1.5c0.3-0.4,0.7-0.9,1.3-1.4
		c0.5-0.5,0.7-0.7,0.7-0.7c0-0.1-0.1-0.1-0.2-0.1c-0.1,0-0.3,0-0.5,0.1c-0.3,0.1-0.4,0.1-0.5,0.2c-2.9,2.8-4.9,4.1-5.9,4.1
		c-0.1,0-0.1,0-0.1-0.1c0-0.1,0.1-0.2,0.3-0.2c0.2,0,0.5-0.1,0.8-0.3c0.5-0.2,1.3-0.8,2.3-1.6C82,114,82.6,113.4,83.1,112.8z"/>
	<path class="st8" d="M88.3,113.9l-2.3,1.7c-1.2,0.9-2.2,1.3-2.7,1.3c-0.1,0-0.1,0-0.1-0.1c0-0.1,0.1-0.2,0.3-0.2
		c0.3,0,0.6-0.1,0.9-0.3c0.4-0.2,1.1-0.7,2.1-1.4c0.7-0.5,1.5-1.1,2.3-1.7c0.9-1.4,2.2-2.9,3.8-4.5c1.8-1.8,3-2.7,3.6-2.7
		c0.3,0,0.4,0.2,0.4,0.5c0,0.8-0.9,2-2.8,3.8c-1.2,1.1-2.4,2.1-3.8,3.2c-0.3,0.2-0.7,0.7-1.2,1.5c-0.5,0.8-0.7,1.3-0.7,1.7
		c0,0.2,0.2,0.2,0.5,0.2c0.1,0,0.1,0,0.1,0.1c0,0.1-0.2,0.2-0.5,0.2c-0.5,0-0.8-0.3-0.8-0.8C87.6,115.7,87.9,114.9,88.3,113.9z
		 M96.3,106.1c-0.2,0-1.2,1-2.9,2.9c-1.6,1.8-2.6,3.1-3.1,3.8c4.1-3.3,6.1-5.5,6.1-6.5C96.4,106.2,96.4,106.1,96.3,106.1z"/>
	<path class="st8" d="M92.5,114.7l-1.8,1.4c-0.9,0.6-1.6,0.9-2,0.9c-0.1,0-0.1,0-0.1-0.1c0-0.1,0.1-0.2,0.2-0.2
		c0.5-0.1,0.9-0.3,1.3-0.5c0.6-0.3,1.4-1,2.5-1.9c1.1-0.9,1.9-1.6,2.5-1.9c0.4-0.2,0.8-0.4,1.1-0.4c0.6,0,0.8,0.2,0.9,0.7
		c0.9-1.2,2-2.4,3.2-3.8c1.8-2.1,2.9-3.1,3.3-3.1c0.2,0,0.3,0.1,0.3,0.3c0,0.2-0.3,0.5-0.8,1.1c-0.9,1-2.3,2.6-4.2,4.8
		c-2.3,2.7-3.4,4.2-3.4,4.6c0,0.1,0.1,0.2,0.3,0.2c0.2,0,0.3,0.1,0.3,0.2c0,0.1-0.2,0.2-0.5,0.2c-0.5,0-0.7-0.2-0.7-0.6
		c0-0.3,0.2-0.8,0.6-1.5c-1.2,1.3-2.1,2-2.6,2c-0.5,0-0.7-0.3-0.7-0.8C92.1,115.8,92.3,115.3,92.5,114.7z M93.1,116.4
		c0.4,0,1.1-0.5,2.1-1.6c1.1-1.1,1.6-1.8,1.6-2.1c0-0.2-0.1-0.3-0.3-0.3c-0.4,0-1.2,0.5-2.1,1.6c-1,1-1.5,1.8-1.5,2.3
		C92.9,116.3,93,116.4,93.1,116.4z"/>
	<path class="st8" d="M115.4,112c0,0.7-0.5,1.5-1.5,2.4c-1,0.9-2.3,1.7-3.7,2.2c-1.4,0.5-2.8,0.7-4.3,0.7c-2,0-3-0.6-3-1.8
		c0-0.7,0.6-1.4,1.7-1.9c1-0.5,1.9-0.8,2.7-0.8c0.3,0,0.4,0.1,0.4,0.2c0,0.1-0.1,0.2-0.4,0.2c-0.8,0.1-1.5,0.3-2.2,0.7
		c-1,0.4-1.5,0.9-1.5,1.5c0,0.7,0.8,1,2.3,1c1.3,0,2.6-0.3,4-0.8c1.5-0.5,2.7-1.2,3.6-2c0.9-0.8,1.4-1.4,1.4-1.7
		c0-0.4-0.6-0.6-1.8-0.8c-2-0.2-3.2-0.4-3.4-0.4c-1.2-0.3-1.8-0.8-1.8-1.6c0-1,0.7-1.9,2.2-2.8c1.2-0.7,2.7-1.3,4.5-1.8
		c1.6-0.4,2.9-0.6,3.8-0.6c1.2,0,1.8,0.4,1.8,1.1c0,0.7-0.6,1.4-1.7,2.3c-1.1,0.9-2,1.3-2.7,1.3c-0.6,0-0.8-0.2-0.8-0.6
		c0-0.3,0.3-0.7,1-1.1c0.6-0.4,1.1-0.6,1.4-0.6c0.1,0,0.2,0,0.2,0.1l-1,0.5c-0.6,0.4-1,0.6-1,0.8c0,0,0.1,0.1,0.2,0.1
		c0.5,0,1.2-0.3,2.2-0.9c1.1-0.6,1.6-1.2,1.6-1.6c0-0.4-0.4-0.5-1.3-0.5c-1,0-2.4,0.3-4.2,0.9c-1.2,0.4-2.3,0.8-3.2,1.2
		c-1.6,0.8-2.4,1.4-2.4,2c0,0.4,0.5,0.7,1.5,0.9l3,0.4c1.2,0.2,1.9,0.4,2.1,0.8C115.3,111.2,115.4,111.6,115.4,112z"/>
	<path class="st8" d="M116.8,114.5l-1.9,1.5c-1,0.7-1.7,1-2.2,1c-0.1,0-0.1,0-0.1-0.1c0-0.1,0.1-0.2,0.2-0.2c0.4-0.1,0.7-0.2,1-0.3
		c0.5-0.3,1.2-0.8,2.3-1.6l2.5-2c0.5-0.4,0.8-0.6,0.9-0.6c0.2,0,0.3,0.1,0.5,0.3c0.4-0.3,0.7-0.4,1-0.4c0.4,0,0.6,0.2,0.6,0.7
		c0,0.7-0.5,1.6-1.6,2.8c-1.1,1.2-2,1.8-2.7,1.8c-0.6,0-1-0.3-1-1C116.2,115.8,116.4,115.2,116.8,114.5z M119.1,113.3
		c-1.3,1.1-1.9,2-1.9,2.7c0,0.3,0.1,0.5,0.4,0.5c0.5,0,1.2-0.6,2.2-1.7c-0.5-0.1-0.8-0.5-0.8-1C119,113.6,119,113.5,119.1,113.3z
		 M120,114.5c0.2-0.2,0.5-0.5,0.7-0.9c0.3-0.4,0.4-0.8,0.4-1c0-0.2-0.1-0.4-0.3-0.4c-0.3,0-0.6,0.2-0.9,0.6c-0.3,0.4-0.5,0.7-0.5,1
		C119.4,114.2,119.6,114.4,120,114.5z"/>
	<path class="st8" d="M126.4,115.2c-1.1,1.1-1.9,1.6-2.4,1.6c-0.4,0-0.6-0.2-0.6-0.6c0-0.5,0.2-1.1,0.7-1.7l1.2-1.4l-2.7,2.2
		c-1.5,1.1-2.6,1.7-3.2,1.7c-0.1,0-0.1,0-0.1-0.1c0-0.1,0.1-0.2,0.3-0.2c0.2,0,0.5-0.1,0.8-0.3c0.4-0.2,1.1-0.7,2.3-1.6
		c0.5-0.4,1.3-1.1,2.4-2c0.2-0.2,0.5-0.4,0.8-0.7c0.2-0.1,0.3-0.1,0.4-0.1c0.4,0,0.5,0.1,0.5,0.4c0,0.2-0.4,0.8-1.3,1.8
		c-0.9,1-1.3,1.7-1.3,2.1c0,0.1,0.1,0.2,0.2,0.2c0.4,0,1.2-0.7,2.5-2.1c1.3-1.4,2-2.1,2.2-2.1c0.1,0,0.2,0,0.3,0.1
		c0.1,0.1,0.1,0.2,0.1,0.3c0,0.1-0.5,0.8-1.4,1.9c-1,1.1-1.4,1.8-1.4,2.1c0,0.1,0.1,0.2,0.3,0.2c0.2,0,0.3,0.1,0.3,0.2
		c0,0.1-0.2,0.2-0.5,0.2c-0.5,0-0.8-0.2-0.8-0.6C126,116.1,126.1,115.7,126.4,115.2z"/>
	<path class="st8" d="M133.4,114.1c1.7-1.5,2.9-2.2,3.6-2.2c0.4,0,0.7,0.2,0.7,0.6c0,0.4-0.5,1-1.5,2c-1,1-1.5,1.5-1.5,1.7
		c0,0.2,0.1,0.3,0.3,0.3s0.3,0.1,0.3,0.2c0,0.1-0.2,0.2-0.7,0.2c-0.5,0-0.8-0.2-0.8-0.7c0-0.4,0.3-0.9,0.7-1.5
		c0.3-0.3,0.7-0.8,1.4-1.4c0.5-0.5,0.7-0.8,0.7-0.9c0-0.1-0.1-0.1-0.2-0.1c-0.4,0-1.1,0.5-2.3,1.4c-1,0.8-1.7,1.4-2.2,1.9
		c-0.6,0.6-1,1-1.1,1c-0.1,0-0.2,0-0.3-0.1c-0.1-0.1-0.1-0.2-0.1-0.3c0-0.1,0.4-0.7,1.3-1.7l1.5-1.8l-2.4,1.9l-1.8,1.4
		c-0.9,0.6-1.6,0.9-2.1,0.9c-0.1,0-0.1,0-0.1-0.1c0-0.1,0.1-0.2,0.3-0.2c0.2,0,0.5-0.1,0.8-0.3c0.5-0.2,1.4-0.9,2.8-2
		c1.3-1,2.2-1.8,2.7-2.4c0.1-0.1,0.2-0.2,0.4-0.3c0.1,0,0.2-0.1,0.3-0.1c0.1,0,0.2,0,0.3,0.1c0.1,0.1,0.2,0.2,0.2,0.3
		C134.9,112.1,134.4,112.8,133.4,114.1z"/>
	<path class="st8" d="M139,114.7l-1.8,1.4c-0.9,0.6-1.6,0.9-2,0.9c-0.1,0-0.1,0-0.1-0.1c0-0.1,0.1-0.2,0.2-0.2
		c0.5-0.1,0.9-0.3,1.3-0.5c0.6-0.3,1.4-1,2.5-1.9c1.1-0.9,1.9-1.6,2.5-1.9c0.4-0.2,0.8-0.4,1.1-0.4c0.6,0,0.8,0.2,0.9,0.7
		c0.9-1.2,2-2.4,3.2-3.8c1.8-2.1,2.9-3.1,3.3-3.1c0.2,0,0.3,0.1,0.3,0.3c0,0.2-0.3,0.5-0.8,1.1c-0.9,1-2.3,2.6-4.2,4.8
		c-2.3,2.7-3.4,4.2-3.4,4.6c0,0.1,0.1,0.2,0.3,0.2c0.2,0,0.3,0.1,0.3,0.2c0,0.1-0.2,0.2-0.5,0.2c-0.5,0-0.7-0.2-0.7-0.6
		c0-0.3,0.2-0.8,0.6-1.5c-1.2,1.3-2.1,2-2.6,2c-0.5,0-0.7-0.3-0.7-0.8C138.6,115.8,138.7,115.3,139,114.7z M139.5,116.4
		c0.4,0,1.1-0.5,2.1-1.6c1.1-1.1,1.6-1.8,1.6-2.1c0-0.2-0.1-0.3-0.3-0.3c-0.4,0-1.2,0.5-2.1,1.6c-1,1-1.5,1.8-1.5,2.3
		C139.4,116.3,139.4,116.4,139.5,116.4z"/>
</g>
</svg>
