<?xml version="1.0" encoding="utf-8"?>
<!-- Generator: Adobe Illustrator 23.0.1, SVG Export Plug-In . SVG Version: 6.00 Build 0)  -->
<svg version="1.1" id="Calque_1" xmlns="http://www.w3.org/2000/svg" xmlns:xlink="http://www.w3.org/1999/xlink" x="0px" y="0px"
	 viewBox="0 0 100 100" style="enable-background:new 0 0 100 100;" xml:space="preserve">
<style type="text/css">
	.st0{fill:#009DAC;}
	.st1{fill:#A14D93;}
	.st2{fill:#F6C33B;}
	.st3{fill:#EA802D;}
	.st4{fill:#EB6176;}
	.st5{fill:none;stroke:#009DAC;stroke-width:4.0803;stroke-linecap:round;stroke-linejoin:round;stroke-miterlimit:10;}
	.st6{fill:#DE3E62;}
	.st7{fill:#FFFFFF;}
	.st8{fill:#F6C33B;stroke:#F7C33B;stroke-width:0.204;stroke-miterlimit:10;}
</style>
<ellipse class="st0" cx="26.5" cy="43.2" rx="4.7" ry="4.6"/>
<polygon class="st1" points="31.2,34.3 26.3,41.1 36.2,41.1 "/>
<g>
	<rect x="35" y="82.5" class="st0" width="0.8" height="0.8"/>
	<rect x="36.4" y="82.5" class="st0" width="0.8" height="0.8"/>
	<rect x="37.7" y="82.5" class="st0" width="0.8" height="0.8"/>
	<rect x="39" y="82.5" class="st0" width="0.8" height="0.8"/>
	<rect x="35" y="84.1" class="st0" width="0.8" height="0.8"/>
	<rect x="36.4" y="84.1" class="st0" width="0.8" height="0.8"/>
	<rect x="37.7" y="84.1" class="st0" width="0.8" height="0.8"/>
	<rect x="39" y="84.1" class="st0" width="0.8" height="0.8"/>
	<rect x="35" y="85.8" class="st0" width="0.8" height="0.8"/>
	<rect x="36.4" y="85.8" class="st0" width="0.8" height="0.8"/>
	<rect x="37.7" y="85.8" class="st0" width="0.8" height="0.8"/>
	<rect x="39" y="85.8" class="st0" width="0.8" height="0.8"/>
	<rect x="35" y="87.4" class="st0" width="0.8" height="0.8"/>
	<rect x="36.4" y="87.4" class="st0" width="0.8" height="0.8"/>
	<rect x="37.7" y="87.4" class="st0" width="0.8" height="0.8"/>
	<rect x="39" y="87.4" class="st0" width="0.8" height="0.8"/>
</g>
<ellipse class="st2" cx="66" cy="74.4" rx="10.8" ry="10.7"/>
<ellipse class="st2" cx="13.2" cy="37.5" rx="1.8" ry="1.7"/>
<ellipse class="st0" cx="73.6" cy="10.3" rx="1.5" ry="1.4"/>
<polygon class="st3" points="67.2,42.4 58,33.4 68.2,23.4 77.3,32.4 "/>
<polygon class="st4" points="88.7,54.1 53.3,88.9 18,54.1 53.3,19.3 "/>
<g>
	<line class="st5" x1="38" y1="50.3" x2="17.4" y2="70.6"/>
	<line class="st5" x1="37.2" y1="54.8" x2="16.6" y2="75.1"/>
</g>
<g>
	<line class="st5" x1="91.5" y1="33.4" x2="70.8" y2="53.7"/>
	<line class="st5" x1="90.6" y1="37.9" x2="70" y2="58.2"/>
</g>
<polygon class="st6" points="29.4,29.7 26.6,26.8 29.4,24 32.3,26.8 "/>
<path class="st7" d="M38.8,45.5v1.4h-4.6v3.4h4.6v1.4h-4.6v3.4h4.6v1.4h-6.1V45.5H38.8z"/>
<path class="st7" d="M45.4,53.1h-1.3v3.6h-1.5V45.5h3.2c0.9,0.1,1.7,0.5,2.3,1.1c0.7,0.7,1.1,1.6,1.1,2.7c0,1-0.4,1.9-1.1,2.7
	c-0.5,0.5-0.9,0.8-1.2,0.9l2.5,3.8h-1.8L45.4,53.1z M44.1,47v4.7h1.3c0.7,0,1.2-0.2,1.7-0.7c0.5-0.5,0.7-1,0.7-1.7
	c0-0.6-0.2-1.2-0.7-1.7c-0.5-0.5-1-0.7-1.7-0.7H44.1z"/>
<path class="st7" d="M55.6,53.1h-1.3v3.6h-1.5V45.5H56c0.9,0.1,1.7,0.5,2.3,1.1c0.7,0.7,1.1,1.6,1.1,2.7c0,1-0.4,1.9-1.1,2.7
	c-0.5,0.5-0.9,0.8-1.2,0.9l2.5,3.8h-1.8L55.6,53.1z M54.2,47v4.7h1.3c0.7,0,1.2-0.2,1.7-0.7c0.5-0.5,0.7-1,0.7-1.7
	c0-0.6-0.2-1.2-0.7-1.7c-0.5-0.5-1-0.7-1.7-0.7H54.2z"/>
<path class="st7" d="M72.7,47c1.1,1.1,1.7,2.5,1.7,4s-0.6,2.9-1.7,4c-1.1,1.1-2.5,1.7-4.1,1.7c-1.6,0-3-0.6-4.1-1.7
	c-1.1-1.1-1.7-2.5-1.7-4s0.6-2.9,1.7-4c1.1-1.1,2.5-1.7,4.1-1.7C70.2,45.4,71.5,45.9,72.7,47z M68.6,46.8c-1.2,0-2.2,0.4-3.1,1.2
	c-0.8,0.8-1.3,1.8-1.3,3s0.4,2.2,1.3,3c0.8,0.8,1.9,1.2,3,1.2c1.2,0,2.2-0.4,3.1-1.2c0.8-0.8,1.3-1.8,1.3-3s-0.4-2.2-1.3-3
	C70.8,47.2,69.8,46.8,68.6,46.8z"/>
<g>
	<path class="st8" d="M36.9,55.8l-1.8,1.8c-1,0.9-1.6,1.3-2.1,1.3c-0.2,0-0.3-0.1-0.4-0.2c-0.1-0.1-0.2-0.3-0.2-0.4
		c0-0.5,0.4-1.2,1.1-2c0.5-0.5,1.2-1.2,2.1-1.9c0.7-0.6,1.1-0.9,1.1-1c0,0,0-0.1-0.1-0.1c-0.2,0-0.7,0.3-1.5,0.8
		c-0.8,0.5-1.2,0.9-1.2,1c0,0,0,0.1,0.1,0.1c0.1,0,0.2,0,0.3-0.1l0.3-0.2c0.1,0,0.1,0,0.1,0.1c0,0.1-0.1,0.2-0.4,0.3
		c-0.3,0.1-0.5,0.2-0.6,0.2c-0.2,0-0.3-0.1-0.3-0.3c0-0.2,0.2-0.4,0.6-0.8c0.3-0.3,0.8-0.6,1.3-0.9c0.6-0.3,1.1-0.5,1.5-0.5
		c0.2,0,0.2,0.1,0.2,0.2c0,0.2-0.2,0.5-0.7,0.9c-2.5,2.3-3.7,3.7-3.7,4.3c0,0.2,0.1,0.2,0.2,0.2c0.4,0,1.3-0.7,2.7-2
		c0.8-0.7,1.7-1.6,2.6-2.5c0.1-0.1,0.3-0.3,0.5-0.5c0.1-0.1,0.1-0.1,0.2-0.1c0,0,0.1,0,0.1,0.1c0,0.1,0.1,0.1,0.1,0.1
		c0,0.1-0.3,0.4-0.8,0.9c-0.6,0.7-1.1,1.3-1.4,1.7c-0.5,0.7-0.8,1.3-0.8,1.7c0,0.3,0.1,0.4,0.4,0.4c0.2,0,0.5-0.1,0.8-0.4
		c0.3-0.2,0.8-0.7,1.5-1.4c0.7-0.7,1.3-1.4,1.8-2.2s0.8-1.2,0.8-1.3c0-0.1,0-0.1-0.1-0.1c-0.1,0-0.4,0.2-0.9,0.6l-0.8,0.6
		c0,0,0,0,0-0.1c0-0.2,0.3-0.5,0.8-0.9s0.9-0.6,1.1-0.6c0.2,0,0.3,0.1,0.3,0.3c0,0.3-0.3,1-1,1.9c-0.5,0.7-1,1.2-1.5,1.7
		c-0.6,0.6-1.1,1.1-1.5,1.4c-0.4,0.3-0.9,0.5-1.2,0.5c-0.4,0-0.7-0.3-0.7-0.8c0-0.4,0.1-0.8,0.3-1.2C36.4,56.6,36.6,56.2,36.9,55.8z
		"/>
	<path class="st8" d="M40.5,57.6l-0.9,0.7c-0.4,0.3-0.8,0.5-1,0.5c0,0-0.1,0-0.1-0.1c0-0.1,0-0.1,0.1-0.1c0.2,0,0.3-0.1,0.4-0.1
		c0.2-0.1,0.6-0.4,1-0.7l1.1-0.9c0.2-0.2,0.3-0.3,0.4-0.3c0.1,0,0.1,0,0.2,0.1c0.2-0.1,0.3-0.2,0.4-0.2c0.2,0,0.3,0.1,0.3,0.3
		c0,0.3-0.2,0.7-0.7,1.2c-0.5,0.5-0.9,0.8-1.2,0.8c-0.3,0-0.4-0.1-0.4-0.4C40.3,58.2,40.3,58,40.5,57.6z M41.6,57.1
		c-0.6,0.5-0.9,0.9-0.9,1.2c0,0.1,0.1,0.2,0.2,0.2c0.2,0,0.5-0.3,1-0.8c-0.2-0.1-0.4-0.2-0.4-0.5C41.5,57.2,41.5,57.2,41.6,57.1z
		 M42,57.6c0.1-0.1,0.2-0.2,0.3-0.4c0.1-0.2,0.2-0.3,0.2-0.5c0-0.1,0-0.2-0.1-0.2c-0.1,0-0.3,0.1-0.4,0.3c-0.1,0.2-0.2,0.3-0.2,0.5
		C41.7,57.5,41.8,57.6,42,57.6z"/>
	<path class="st8" d="M44.1,56.9c0-0.1,0-0.1,0-0.2c0-0.1,0.1-0.2,0.3-0.4c0.2-0.2,0.3-0.2,0.4-0.2c0.1,0,0.1,0,0.1,0.1
		c0,0.1,0,0.1-0.1,0.3c0.3,0,0.5,0.1,0.5,0.4c0,0.2-0.2,0.5-0.6,0.9c-0.4,0.4-0.6,0.7-0.6,0.7c0,0.1,0,0.1,0.1,0.1l0.1,0
		c0,0,0.1,0,0.1,0.1c0,0.1-0.1,0.1-0.2,0.1c-0.2,0-0.3-0.1-0.3-0.3c0-0.2,0.1-0.4,0.3-0.7c0.1-0.2,0.3-0.4,0.6-0.6
		c0.2-0.2,0.3-0.3,0.3-0.3c0,0,0-0.1-0.1-0.1c0,0-0.1,0-0.2,0c-0.1,0-0.2,0.1-0.2,0.1c-1.3,1.2-2.2,1.8-2.7,1.8c0,0-0.1,0-0.1-0.1
		c0,0,0-0.1,0.1-0.1c0.1,0,0.2-0.1,0.4-0.1c0.2-0.1,0.6-0.3,1-0.7C43.6,57.4,43.9,57.1,44.1,56.9z"/>
	<path class="st8" d="M46.5,57.4l-1,0.8c-0.6,0.4-1,0.6-1.2,0.6c0,0-0.1,0-0.1,0c0-0.1,0.1-0.1,0.2-0.1c0.1,0,0.3-0.1,0.4-0.2
		c0.2-0.1,0.5-0.3,1-0.6c0.3-0.2,0.7-0.5,1-0.8c0.4-0.6,1-1.3,1.7-2c0.8-0.8,1.4-1.2,1.6-1.2c0.1,0,0.2,0.1,0.2,0.2
		c0,0.4-0.4,0.9-1.3,1.7c-0.5,0.5-1.1,1-1.7,1.4c-0.1,0.1-0.3,0.3-0.5,0.7c-0.2,0.4-0.3,0.6-0.3,0.7c0,0.1,0.1,0.1,0.2,0.1
		c0,0,0.1,0,0.1,0.1c0,0.1-0.1,0.1-0.2,0.1c-0.2,0-0.4-0.1-0.4-0.4C46.1,58.2,46.2,57.8,46.5,57.4z M50,53.9c-0.1,0-0.5,0.4-1.3,1.3
		c-0.7,0.8-1.2,1.4-1.4,1.7C49.2,55.4,50.1,54.4,50,53.9C50.1,53.9,50.1,53.9,50,53.9z"/>
	<path class="st8" d="M48.4,57.7l-0.8,0.6c-0.4,0.3-0.7,0.4-0.9,0.4c0,0-0.1,0-0.1-0.1c0-0.1,0-0.1,0.1-0.1c0.2-0.1,0.4-0.1,0.6-0.2
		c0.3-0.2,0.6-0.4,1.1-0.9s0.9-0.7,1.1-0.9c0.2-0.1,0.4-0.2,0.5-0.2c0.3,0,0.4,0.1,0.4,0.3c0.4-0.5,0.9-1.1,1.4-1.7
		c0.8-0.9,1.3-1.4,1.5-1.4c0.1,0,0.1,0.1,0.1,0.2c0,0.1-0.1,0.2-0.3,0.5c-0.4,0.4-1.1,1.1-1.9,2.1c-1,1.2-1.6,1.9-1.6,2
		c0,0.1,0,0.1,0.1,0.1c0.1,0,0.1,0,0.1,0.1c0,0.1-0.1,0.1-0.2,0.1c-0.2,0-0.3-0.1-0.3-0.3c0-0.1,0.1-0.4,0.3-0.7
		c-0.6,0.6-1,0.9-1.2,0.9c-0.2,0-0.3-0.1-0.3-0.3C48.2,58.2,48.2,58,48.4,57.7z M48.6,58.5c0.2,0,0.5-0.2,1-0.7
		c0.5-0.5,0.7-0.8,0.7-1c0-0.1,0-0.1-0.1-0.1c-0.2,0-0.5,0.2-1,0.7C48.8,57.8,48.5,58.2,48.6,58.5C48.5,58.4,48.6,58.5,48.6,58.5z"
		/>
	<path class="st8" d="M58.7,56.5c0,0.3-0.2,0.6-0.7,1c-0.5,0.4-1,0.7-1.7,1c-0.6,0.2-1.3,0.3-1.9,0.3c-0.9,0-1.3-0.3-1.3-0.8
		c0-0.3,0.3-0.6,0.8-0.9c0.4-0.2,0.8-0.3,1.2-0.3c0.1,0,0.2,0,0.2,0.1c0,0-0.1,0.1-0.2,0.1c-0.3,0.1-0.7,0.2-1,0.3
		c-0.5,0.2-0.7,0.4-0.7,0.7c0,0.3,0.3,0.4,1,0.4c0.6,0,1.2-0.1,1.8-0.3c0.7-0.2,1.2-0.5,1.6-0.9c0.4-0.3,0.6-0.6,0.6-0.8
		c0-0.2-0.3-0.3-0.8-0.4c-0.9-0.1-1.4-0.2-1.5-0.2c-0.6-0.1-0.8-0.4-0.8-0.7c0-0.4,0.3-0.8,1-1.2c0.5-0.3,1.2-0.6,2-0.8
		c0.7-0.2,1.3-0.3,1.7-0.3c0.6,0,0.8,0.2,0.8,0.5c0,0.3-0.3,0.6-0.8,1c-0.5,0.4-0.9,0.6-1.2,0.6c-0.3,0-0.4-0.1-0.4-0.3
		c0-0.1,0.1-0.3,0.4-0.5c0.3-0.2,0.5-0.3,0.6-0.3c0.1,0,0.1,0,0.1,0.1l-0.4,0.2c-0.3,0.2-0.4,0.3-0.5,0.3c0,0,0,0,0.1,0
		c0.2,0,0.5-0.1,1-0.4c0.5-0.3,0.7-0.5,0.7-0.7c0-0.2-0.2-0.2-0.6-0.2c-0.5,0-1.1,0.1-1.9,0.4c-0.6,0.2-1,0.4-1.5,0.6
		c-0.7,0.3-1.1,0.6-1.1,0.9c0,0.2,0.2,0.3,0.7,0.4l1.4,0.2c0.5,0.1,0.9,0.2,1,0.3C58.7,56.2,58.7,56.4,58.7,56.5z"/>
	<path class="st8" d="M59.4,57.6l-0.9,0.7c-0.4,0.3-0.8,0.5-1,0.5c0,0-0.1,0-0.1-0.1c0-0.1,0-0.1,0.1-0.1c0.2,0,0.3-0.1,0.4-0.1
		c0.2-0.1,0.6-0.4,1-0.7l1.1-0.9c0.2-0.2,0.3-0.3,0.4-0.3c0.1,0,0.1,0,0.2,0.1c0.2-0.1,0.3-0.2,0.4-0.2c0.2,0,0.3,0.1,0.3,0.3
		c0,0.3-0.2,0.7-0.7,1.2c-0.5,0.5-0.9,0.8-1.2,0.8c-0.3,0-0.4-0.1-0.4-0.4C59.1,58.2,59.2,58,59.4,57.6z M60.4,57.1
		c-0.6,0.5-0.9,0.9-0.9,1.2c0,0.1,0.1,0.2,0.2,0.2c0.2,0,0.5-0.3,1-0.8c-0.2-0.1-0.4-0.2-0.4-0.5C60.4,57.2,60.4,57.2,60.4,57.1z
		 M60.8,57.6c0.1-0.1,0.2-0.2,0.3-0.4c0.1-0.2,0.2-0.3,0.2-0.5c0-0.1,0-0.2-0.1-0.2c-0.1,0-0.3,0.1-0.4,0.3
		c-0.1,0.2-0.2,0.3-0.2,0.5C60.5,57.5,60.6,57.6,60.8,57.6z"/>
	<path class="st8" d="M63.7,58c-0.5,0.5-0.9,0.7-1.1,0.7c-0.2,0-0.3-0.1-0.3-0.3c0-0.2,0.1-0.5,0.3-0.8l0.5-0.6L62,58
		c-0.7,0.5-1.2,0.8-1.4,0.8c0,0-0.1,0-0.1-0.1c0,0,0-0.1,0.1-0.1c0.1,0,0.2-0.1,0.4-0.1c0.2-0.1,0.5-0.3,1-0.7
		c0.2-0.2,0.6-0.5,1.1-0.9c0.1-0.1,0.2-0.2,0.4-0.3c0.1,0,0.1-0.1,0.2-0.1c0.2,0,0.2,0.1,0.2,0.2c0,0.1-0.2,0.4-0.6,0.8
		c-0.4,0.4-0.6,0.7-0.6,0.9c0,0,0,0.1,0.1,0.1c0.2,0,0.5-0.3,1.1-1c0.6-0.6,0.9-1,1-1c0,0,0.1,0,0.1,0.1c0,0,0.1,0.1,0.1,0.1
		c0,0.1-0.2,0.3-0.7,0.8c-0.4,0.5-0.7,0.8-0.7,1c0,0.1,0,0.1,0.1,0.1c0.1,0,0.1,0,0.1,0.1c0,0.1-0.1,0.1-0.2,0.1
		c-0.2,0-0.4-0.1-0.4-0.3C63.5,58.4,63.6,58.2,63.7,58z"/>
	<path class="st8" d="M66.8,57.5c0.8-0.6,1.3-1,1.6-1c0.2,0,0.3,0.1,0.3,0.3c0,0.2-0.2,0.5-0.7,0.9c-0.5,0.4-0.7,0.7-0.7,0.8
		c0,0.1,0.1,0.1,0.2,0.1s0.2,0,0.2,0.1c0,0.1-0.1,0.1-0.3,0.1c-0.2,0-0.4-0.1-0.4-0.3c0-0.2,0.1-0.4,0.3-0.7
		c0.1-0.1,0.3-0.3,0.6-0.6c0.2-0.2,0.3-0.3,0.3-0.4c0,0,0-0.1-0.1-0.1c-0.2,0-0.5,0.2-1.1,0.6c-0.4,0.4-0.8,0.6-1,0.9
		c-0.3,0.3-0.4,0.4-0.5,0.4c0,0-0.1,0-0.1-0.1c0,0-0.1-0.1-0.1-0.1c0-0.1,0.2-0.3,0.6-0.8l0.7-0.8l-1.1,0.9L65,58.3
		c-0.4,0.3-0.7,0.4-0.9,0.4c0,0-0.1,0-0.1-0.1c0-0.1,0-0.1,0.1-0.1c0.1,0,0.2-0.1,0.4-0.1c0.2-0.1,0.6-0.4,1.3-0.9
		c0.6-0.5,1-0.8,1.2-1c0,0,0.1-0.1,0.2-0.2c0,0,0.1,0,0.1,0c0,0,0.1,0,0.1,0s0.1,0.1,0.1,0.1C67.5,56.6,67.3,56.9,66.8,57.5z"/>
	<path class="st8" d="M69.4,57.7l-0.8,0.6c-0.4,0.3-0.7,0.4-0.9,0.4c0,0-0.1,0-0.1-0.1c0-0.1,0-0.1,0.1-0.1c0.2-0.1,0.4-0.1,0.6-0.2
		c0.3-0.2,0.6-0.4,1.1-0.9c0.5-0.4,0.9-0.7,1.1-0.9c0.2-0.1,0.4-0.2,0.5-0.2c0.3,0,0.4,0.1,0.4,0.3c0.4-0.5,0.9-1.1,1.4-1.7
		c0.8-0.9,1.3-1.4,1.5-1.4c0.1,0,0.1,0.1,0.1,0.2c0,0.1-0.1,0.2-0.3,0.5c-0.4,0.4-1.1,1.1-1.9,2.1c-1,1.2-1.6,1.9-1.6,2
		c0,0.1,0,0.1,0.1,0.1c0.1,0,0.1,0,0.1,0.1c0,0.1-0.1,0.1-0.2,0.1c-0.2,0-0.3-0.1-0.3-0.3c0-0.1,0.1-0.4,0.3-0.7
		c-0.6,0.6-1,0.9-1.2,0.9c-0.2,0-0.3-0.1-0.3-0.3C69.2,58.2,69.3,58,69.4,57.7z M69.6,58.5c0.2,0,0.5-0.2,1-0.7
		c0.5-0.5,0.7-0.8,0.7-1c0-0.1,0-0.1-0.1-0.1c-0.2,0-0.5,0.2-1,0.7C69.8,57.8,69.6,58.2,69.6,58.5C69.6,58.4,69.6,58.5,69.6,58.5z"
		/>
</g>
</svg>
