<?xml version="1.0" encoding="utf-8"?>
<!-- Generator: Adobe Illustrator 23.0.1, SVG Export Plug-In . SVG Version: 6.00 Build 0)  -->
<svg version="1.1" id="Calque_1" xmlns="http://www.w3.org/2000/svg" xmlns:xlink="http://www.w3.org/1999/xlink" x="0px" y="0px"
	 viewBox="0 0 20 13" style="enable-background:new 0 0 20 13;" xml:space="preserve">
<style type="text/css">
	.st0{fill:#009DAC;}
	.st1{fill:#A14D93;}
	.st2{fill:#2F4976;}
	.st3{fill:#E5007E;stroke:#E5007E;stroke-width:5.000000e-02;stroke-miterlimit:10;}
</style>
<circle class="st0" cx="5.3" cy="7.2" r="3.8"/>
<polygon class="st1" points="8,0.9 5.7,6.9 13,5 "/>
<path class="st2" d="M3.9,5.7v0.6h-2v1.5h2v0.6h-2v1.5h2v0.6H1.3V5.7H3.9z"/>
<path class="st2" d="M6.7,9H6.1v1.5H5.5V5.7h1.4c0.4,0.1,0.7,0.2,1,0.5c0.3,0.3,0.5,0.7,0.5,1.2c0,0.5-0.2,0.8-0.5,1.2
	C7.6,8.7,7.5,8.8,7.4,8.9l1.1,1.6H7.7L6.7,9z M6.1,6.3v2h0.6C7,8.3,7.2,8.2,7.4,8c0.2-0.2,0.3-0.4,0.3-0.7c0-0.3-0.1-0.5-0.3-0.7
	C7.2,6.4,7,6.3,6.7,6.3H6.1z"/>
<path class="st2" d="M11,9h-0.6v1.5H9.8V5.7h1.4c0.4,0.1,0.7,0.2,1,0.5c0.3,0.3,0.5,0.7,0.5,1.2c0,0.5-0.2,0.8-0.5,1.2
	c-0.2,0.2-0.4,0.3-0.5,0.4l1.1,1.6H12L11,9z M10.5,6.3v2H11c0.3,0,0.5-0.1,0.7-0.3C11.9,7.8,12,7.6,12,7.3c0-0.3-0.1-0.5-0.3-0.7
	c-0.2-0.2-0.4-0.3-0.7-0.3H10.5z"/>
<path class="st2" d="M18.3,6.4C18.8,6.8,19,7.4,19,8.1s-0.2,1.3-0.7,1.7c-0.5,0.5-1.1,0.7-1.7,0.7c-0.7,0-1.3-0.2-1.7-0.7
	c-0.5-0.5-0.7-1.1-0.7-1.7s0.2-1.3,0.7-1.7c0.5-0.5,1.1-0.7,1.7-0.7C17.2,5.6,17.8,5.9,18.3,6.4z M16.5,6.3c-0.5,0-0.9,0.2-1.3,0.5
	c-0.4,0.4-0.5,0.8-0.5,1.3s0.2,0.9,0.5,1.3c0.4,0.4,0.8,0.5,1.3,0.5c0.5,0,0.9-0.2,1.3-0.5c0.4-0.4,0.5-0.8,0.5-1.3
	s-0.2-0.9-0.5-1.3C17.5,6.4,17,6.3,16.5,6.3z"/>
<g>
	<path class="st3" d="M2.9,10.5l-0.8,0.8c-0.4,0.4-0.7,0.6-0.9,0.6c-0.1,0-0.1,0-0.2-0.1c0,0-0.1-0.1-0.1-0.2c0-0.2,0.2-0.5,0.5-0.9
		c0.2-0.2,0.5-0.5,0.9-0.8c0.3-0.3,0.5-0.4,0.5-0.4c0,0,0,0,0,0c-0.1,0-0.3,0.1-0.7,0.3c-0.3,0.2-0.5,0.4-0.5,0.4c0,0,0,0,0,0
		c0,0,0.1,0,0.1-0.1L1.9,10c0,0,0,0,0,0c0,0-0.1,0.1-0.2,0.1c-0.1,0.1-0.2,0.1-0.2,0.1c-0.1,0-0.1,0-0.1-0.1c0-0.1,0.1-0.2,0.3-0.3
		C1.8,9.7,2,9.6,2.3,9.5c0.3-0.1,0.5-0.2,0.6-0.2C3,9.3,3,9.3,3,9.3c0,0.1-0.1,0.2-0.3,0.4c-1,1-1.6,1.6-1.6,1.8
		c0,0.1,0,0.1,0.1,0.1c0.2,0,0.6-0.3,1.2-0.8c0.3-0.3,0.7-0.7,1.1-1.1c0,0,0.1-0.1,0.2-0.2c0,0,0.1,0,0.1,0c0,0,0,0,0.1,0
		c0,0,0,0,0,0.1c0,0-0.1,0.2-0.3,0.4c-0.3,0.3-0.5,0.6-0.6,0.7c-0.2,0.3-0.3,0.5-0.3,0.7c0,0.1,0.1,0.2,0.2,0.2
		c0.1,0,0.2-0.1,0.3-0.2c0.1-0.1,0.3-0.3,0.6-0.6C4,10.6,4.3,10.3,4.5,10c0.2-0.3,0.3-0.5,0.3-0.6c0,0,0,0,0,0
		c-0.1,0-0.2,0.1-0.4,0.3L4.1,9.9c0,0,0,0,0,0c0-0.1,0.1-0.2,0.3-0.4c0.2-0.2,0.4-0.3,0.5-0.3c0.1,0,0.1,0,0.1,0.1
		c0,0.1-0.1,0.4-0.4,0.8c-0.2,0.3-0.4,0.5-0.6,0.8c-0.2,0.3-0.5,0.5-0.7,0.6c-0.2,0.1-0.4,0.2-0.5,0.2c-0.2,0-0.3-0.1-0.3-0.3
		c0-0.2,0-0.3,0.1-0.5C2.7,10.8,2.8,10.6,2.9,10.5z"/>
	<path class="st3" d="M4.4,11.2l-0.4,0.3c-0.2,0.1-0.3,0.2-0.4,0.2c0,0,0,0,0,0c0,0,0,0,0,0c0.1,0,0.1,0,0.2-0.1
		c0.1,0,0.2-0.2,0.4-0.3l0.5-0.4c0.1-0.1,0.1-0.1,0.2-0.1c0,0,0.1,0,0.1,0.1c0.1-0.1,0.1-0.1,0.2-0.1c0.1,0,0.1,0,0.1,0.1
		c0,0.1-0.1,0.3-0.3,0.5c-0.2,0.2-0.4,0.3-0.5,0.3c-0.1,0-0.2-0.1-0.2-0.2C4.3,11.5,4.3,11.4,4.4,11.2z M4.9,11
		c-0.2,0.2-0.4,0.4-0.4,0.5c0,0.1,0,0.1,0.1,0.1c0.1,0,0.2-0.1,0.4-0.3C4.9,11.3,4.8,11.2,4.9,11C4.8,11.1,4.8,11.1,4.9,11z M5,11.3
		c0,0,0.1-0.1,0.1-0.2c0-0.1,0.1-0.1,0.1-0.2c0,0,0-0.1-0.1-0.1c-0.1,0-0.1,0-0.2,0.1c-0.1,0.1-0.1,0.1-0.1,0.2
		C4.9,11.2,5,11.2,5,11.3z"/>
	<path class="st3" d="M5.9,10.9C5.9,10.9,5.9,10.9,5.9,10.9c0-0.1,0-0.2,0.1-0.2c0.1-0.1,0.1-0.1,0.2-0.1c0,0,0,0,0,0
		c0,0,0,0.1,0,0.1c0.1,0,0.2,0.1,0.2,0.2c0,0.1-0.1,0.2-0.3,0.4c-0.2,0.2-0.3,0.3-0.3,0.3c0,0,0,0,0,0l0.1,0c0,0,0,0,0,0
		c0,0,0,0-0.1,0c-0.1,0-0.1,0-0.1-0.1c0-0.1,0-0.2,0.1-0.3C6,11.3,6,11.2,6.1,11.1c0.1-0.1,0.1-0.1,0.1-0.1c0,0,0,0,0,0
		c0,0-0.1,0-0.1,0c-0.1,0-0.1,0-0.1,0c-0.6,0.5-0.9,0.8-1.1,0.8c0,0,0,0,0,0c0,0,0,0,0,0c0,0,0.1,0,0.2-0.1c0.1,0,0.2-0.1,0.4-0.3
		C5.7,11.2,5.8,11,5.9,10.9z"/>
	<path class="st3" d="M6.9,11.1l-0.4,0.3c-0.2,0.2-0.4,0.2-0.5,0.2c0,0,0,0,0,0c0,0,0,0,0.1,0c0.1,0,0.1,0,0.2-0.1
		c0.1,0,0.2-0.1,0.4-0.3C6.7,11.2,6.9,11.1,7,11c0.2-0.3,0.4-0.6,0.7-0.9c0.3-0.3,0.6-0.5,0.7-0.5c0.1,0,0.1,0,0.1,0.1
		c0,0.2-0.2,0.4-0.5,0.7c-0.2,0.2-0.5,0.4-0.7,0.6c-0.1,0-0.1,0.1-0.2,0.3c-0.1,0.2-0.1,0.3-0.1,0.3c0,0,0,0,0.1,0c0,0,0,0,0,0
		c0,0,0,0-0.1,0c-0.1,0-0.1-0.1-0.1-0.2C6.8,11.5,6.9,11.3,6.9,11.1z M8.5,9.6c0,0-0.2,0.2-0.6,0.5c-0.3,0.4-0.5,0.6-0.6,0.7
		C8.1,10.3,8.5,9.9,8.5,9.6C8.5,9.7,8.5,9.6,8.5,9.6z"/>
	<path class="st3" d="M7.7,11.3l-0.3,0.3c-0.2,0.1-0.3,0.2-0.4,0.2c0,0,0,0,0,0c0,0,0,0,0,0c0.1,0,0.2-0.1,0.3-0.1
		c0.1-0.1,0.3-0.2,0.5-0.4s0.4-0.3,0.5-0.4c0.1,0,0.2-0.1,0.2-0.1c0.1,0,0.2,0,0.2,0.1c0.2-0.2,0.4-0.5,0.6-0.7
		c0.4-0.4,0.6-0.6,0.6-0.6c0,0,0.1,0,0.1,0.1c0,0,0,0.1-0.1,0.2C9.6,10,9.3,10.3,9,10.7c-0.4,0.5-0.7,0.8-0.7,0.9c0,0,0,0,0.1,0
		c0,0,0.1,0,0.1,0c0,0,0,0-0.1,0c-0.1,0-0.1,0-0.1-0.1c0-0.1,0-0.2,0.1-0.3c-0.2,0.3-0.4,0.4-0.5,0.4c-0.1,0-0.1,0-0.1-0.1
		C7.7,11.5,7.7,11.4,7.7,11.3z M7.9,11.6c0.1,0,0.2-0.1,0.4-0.3c0.2-0.2,0.3-0.3,0.3-0.4c0,0,0-0.1,0-0.1c-0.1,0-0.2,0.1-0.4,0.3
		C7.9,11.3,7.8,11.5,7.9,11.6C7.8,11.6,7.8,11.6,7.9,11.6z"/>
	<path class="st3" d="M12.1,10.8c0,0.1-0.1,0.3-0.3,0.5c-0.2,0.2-0.4,0.3-0.7,0.4c-0.3,0.1-0.5,0.1-0.8,0.1c-0.4,0-0.6-0.1-0.6-0.3
		c0-0.1,0.1-0.3,0.3-0.4c0.2-0.1,0.4-0.1,0.5-0.1c0,0,0.1,0,0.1,0c0,0,0,0-0.1,0c-0.1,0-0.3,0.1-0.4,0.1c-0.2,0.1-0.3,0.2-0.3,0.3
		c0,0.1,0.1,0.2,0.4,0.2c0.2,0,0.5,0,0.8-0.1c0.3-0.1,0.5-0.2,0.7-0.4c0.2-0.1,0.3-0.3,0.3-0.3c0-0.1-0.1-0.1-0.4-0.2
		c-0.4,0-0.6-0.1-0.7-0.1c-0.2-0.1-0.4-0.2-0.4-0.3c0-0.2,0.1-0.4,0.4-0.5c0.2-0.1,0.5-0.3,0.9-0.3c0.3-0.1,0.6-0.1,0.7-0.1
		c0.2,0,0.4,0.1,0.4,0.2c0,0.1-0.1,0.3-0.3,0.4c-0.2,0.2-0.4,0.2-0.5,0.2c-0.1,0-0.2,0-0.2-0.1c0-0.1,0.1-0.1,0.2-0.2
		c0.1-0.1,0.2-0.1,0.3-0.1c0,0,0,0,0,0l-0.2,0.1c-0.1,0.1-0.2,0.1-0.2,0.1c0,0,0,0,0,0c0.1,0,0.2-0.1,0.4-0.2
		c0.2-0.1,0.3-0.2,0.3-0.3c0-0.1-0.1-0.1-0.3-0.1c-0.2,0-0.5,0.1-0.8,0.2c-0.2,0.1-0.4,0.2-0.6,0.2c-0.3,0.1-0.5,0.3-0.5,0.4
		c0,0.1,0.1,0.1,0.3,0.2l0.6,0.1c0.2,0,0.4,0.1,0.4,0.1C12.1,10.6,12.1,10.7,12.1,10.8z"/>
	<path class="st3" d="M12.4,11.2L12,11.5c-0.2,0.1-0.3,0.2-0.4,0.2c0,0,0,0,0,0c0,0,0,0,0,0c0.1,0,0.1,0,0.2-0.1
		c0.1,0,0.2-0.2,0.4-0.3l0.5-0.4c0.1-0.1,0.1-0.1,0.2-0.1c0,0,0.1,0,0.1,0.1c0.1-0.1,0.1-0.1,0.2-0.1c0.1,0,0.1,0,0.1,0.1
		c0,0.1-0.1,0.3-0.3,0.5c-0.2,0.2-0.4,0.3-0.5,0.3c-0.1,0-0.2-0.1-0.2-0.2C12.3,11.5,12.3,11.4,12.4,11.2z M12.9,11
		c-0.2,0.2-0.4,0.4-0.4,0.5c0,0.1,0,0.1,0.1,0.1c0.1,0,0.2-0.1,0.4-0.3C12.9,11.3,12.8,11.2,12.9,11C12.8,11.1,12.8,11.1,12.9,11z
		 M13,11.3c0,0,0.1-0.1,0.1-0.2c0-0.1,0.1-0.1,0.1-0.2c0,0,0-0.1-0.1-0.1c-0.1,0-0.1,0-0.2,0.1c-0.1,0.1-0.1,0.1-0.1,0.2
		C12.9,11.2,12.9,11.2,13,11.3z"/>
	<path class="st3" d="M14.3,11.4c-0.2,0.2-0.4,0.3-0.5,0.3c-0.1,0-0.1,0-0.1-0.1c0-0.1,0-0.2,0.1-0.3L14,11l-0.5,0.4
		c-0.3,0.2-0.5,0.3-0.6,0.3c0,0,0,0,0,0c0,0,0,0,0.1,0c0,0,0.1,0,0.2-0.1c0.1,0,0.2-0.1,0.4-0.3c0.1-0.1,0.3-0.2,0.5-0.4
		c0,0,0.1-0.1,0.2-0.1c0,0,0.1,0,0.1,0c0.1,0,0.1,0,0.1,0.1c0,0-0.1,0.2-0.3,0.3c-0.2,0.2-0.3,0.3-0.3,0.4c0,0,0,0,0,0
		c0.1,0,0.2-0.1,0.5-0.4c0.2-0.3,0.4-0.4,0.4-0.4c0,0,0,0,0,0c0,0,0,0,0,0.1c0,0-0.1,0.2-0.3,0.4c-0.2,0.2-0.3,0.4-0.3,0.4
		c0,0,0,0,0.1,0c0,0,0.1,0,0.1,0c0,0,0,0-0.1,0c-0.1,0-0.2,0-0.2-0.1C14.2,11.6,14.2,11.5,14.3,11.4z"/>
	<path class="st3" d="M15.6,11.2c0.3-0.3,0.6-0.4,0.7-0.4c0.1,0,0.1,0,0.1,0.1c0,0.1-0.1,0.2-0.3,0.4c-0.2,0.2-0.3,0.3-0.3,0.3
		c0,0,0,0.1,0.1,0.1c0,0,0.1,0,0.1,0c0,0,0,0-0.1,0c-0.1,0-0.2,0-0.2-0.1c0-0.1,0-0.2,0.1-0.3c0-0.1,0.1-0.1,0.3-0.3
		c0.1-0.1,0.1-0.1,0.1-0.2c0,0,0,0,0,0c-0.1,0-0.2,0.1-0.4,0.3c-0.2,0.2-0.3,0.3-0.4,0.4c-0.1,0.1-0.2,0.2-0.2,0.2c0,0,0,0-0.1,0
		c0,0,0,0,0-0.1c0,0,0.1-0.1,0.2-0.3l0.3-0.4l-0.5,0.4l-0.3,0.3c-0.2,0.1-0.3,0.2-0.4,0.2c0,0,0,0,0,0c0,0,0,0,0.1,0
		c0,0,0.1,0,0.2-0.1c0.1,0,0.3-0.2,0.5-0.4c0.2-0.2,0.4-0.3,0.5-0.5c0,0,0,0,0.1-0.1c0,0,0,0,0.1,0c0,0,0,0,0.1,0c0,0,0,0,0,0
		C15.9,10.8,15.8,10.9,15.6,11.2z"/>
	<path class="st3" d="M16.7,11.3l-0.3,0.3c-0.2,0.1-0.3,0.2-0.4,0.2c0,0,0,0,0,0c0,0,0,0,0,0c0.1,0,0.2-0.1,0.3-0.1
		c0.1-0.1,0.3-0.2,0.5-0.4c0.2-0.2,0.4-0.3,0.5-0.4c0.1,0,0.2-0.1,0.2-0.1c0.1,0,0.2,0,0.2,0.1c0.2-0.2,0.4-0.5,0.6-0.7
		c0.4-0.4,0.6-0.6,0.6-0.6c0,0,0.1,0,0.1,0.1c0,0,0,0.1-0.1,0.2c-0.2,0.2-0.5,0.5-0.8,0.9c-0.4,0.5-0.7,0.8-0.7,0.9c0,0,0,0,0.1,0
		c0,0,0.1,0,0.1,0c0,0,0,0-0.1,0c-0.1,0-0.1,0-0.1-0.1c0-0.1,0-0.2,0.1-0.3c-0.2,0.3-0.4,0.4-0.5,0.4c-0.1,0-0.1,0-0.1-0.1
		C16.6,11.5,16.6,11.4,16.7,11.3z M16.8,11.6c0.1,0,0.2-0.1,0.4-0.3c0.2-0.2,0.3-0.3,0.3-0.4c0,0,0-0.1,0-0.1
		c-0.1,0-0.2,0.1-0.4,0.3C16.8,11.3,16.7,11.5,16.8,11.6C16.7,11.6,16.8,11.6,16.8,11.6z"/>
</g>
</svg>
